<?xml version="1.0" encoding="UTF-8"?>
<svg id="Layer_2" data-name="Layer 2" xmlns="http://www.w3.org/2000/svg" viewBox="0 0 538.12 100">
  <g id="Layer_1-2" data-name="Layer 1">
    <g>
      <path d="M182.85,43.73c.47-8.36-2.75-16.51-8.8-22.3-5.86-5.35-14.28-8.02-25.24-8.02h-21.73v61.25h21.02c11.73,0,20.45-2.77,26.17-8.32,5.9-6,9.01-14.21,8.58-22.61Zm-18.87,14.11c-4.03,3.39-9.22,5.08-14.47,4.73h-8.71V25.33h7.65c5.61-.46,11.18,1.29,15.52,4.86,3.56,3.72,5.39,8.75,5.06,13.88,.35,5.1-1.49,10.1-5.06,13.76Z"/>
      <path d="M225.86,31.46c-3.38-3.1-7.82-4.79-12.4-4.73-6.03-.03-11.82,2.34-16.1,6.58-4.72,4.59-7.25,10.99-6.95,17.57-.29,6.6,2.17,13.02,6.77,17.75,4.12,4.33,9.85,6.77,15.83,6.74,4.68,.04,9.23-1.57,12.84-4.56v3.86h13.28V27.52h-13.28v3.94Zm-2.99,29.14c-1.89,2.33-4.74,3.67-7.74,3.64-3.07,0-5.98-1.33-8-3.64-2.34-2.56-3.58-5.95-3.43-9.42-.12-3.5,1.07-6.92,3.34-9.59,1.96-2.41,4.9-3.82,8.01-3.81,3.07-.02,5.97,1.41,7.83,3.86,2.16,2.72,3.28,6.12,3.17,9.59,.14,3.41-.99,6.75-3.17,9.38Z"/>
      <path d="M268.3,75.37c4.88-.14,9.53-2.15,12.98-5.6l-4.93-9.2c-1.41,2.07-3.74,3.31-6.24,3.33-1.29,0-2.51-.55-3.34-1.53-.99-1.18-1.5-2.7-1.41-4.25v-20.33h11.44v-10.25h-11.44V13.41h-13.28V58.72c-.52,8.66,6.08,16.11,14.74,16.63,.49,.03,.99,.04,1.48,.02Z"/>
      <path d="M308.37,75.37c4.68,.04,9.23-1.57,12.84-4.56v3.86h13.28V27.52h-13.28v3.94c-3.38-3.1-7.82-4.79-12.4-4.73-6.03-.03-11.82,2.34-16.1,6.58-4.72,4.59-7.25,10.99-6.95,17.57-.29,6.6,2.17,13.02,6.77,17.75,4.12,4.33,9.85,6.77,15.83,6.74Zm-5.98-33.78c1.96-2.41,4.9-3.82,8.01-3.81,3.07-.02,5.97,1.41,7.83,3.86,2.16,2.72,3.28,6.12,3.17,9.59,.14,3.41-.99,6.75-3.17,9.38-1.89,2.33-4.74,3.66-7.74,3.64-3.07,0-5.98-1.33-8-3.64-2.34-2.56-3.57-5.95-3.43-9.42-.12-3.5,1.07-6.93,3.34-9.59Z"/>
      <polygon points="384.72 74.67 401.43 74.67 380.67 42.94 399.85 13.41 383.31 13.41 371.61 31.55 359.91 13.41 343.47 13.41 362.73 43.29 342.06 74.67 358.6 74.67 371.61 54.52 384.72 74.67"/>
      <path d="M457.28,50.92c.21-6.39-2.12-12.61-6.47-17.3-7.02-8.24-19.39-9.22-27.63-2.2-.5,.43-.98,.88-1.44,1.36v-5.25h-13.19V91.67h13.19v-23.22c3.22,4.46,8.44,7.05,13.95,6.92,5.82-.02,11.35-2.58,15.13-7.01,4.34-4.75,6.66-11.01,6.47-17.44Zm-16.71,9.6c-2.02,2.3-4.94,3.63-8,3.63-3.01,.02-5.87-1.32-7.79-3.63-2.21-2.61-3.35-5.96-3.21-9.38-.12-3.47,1.02-6.86,3.21-9.55,1.89-2.42,4.8-3.83,7.87-3.81,3.11,0,6.06,1.42,8,3.86,2.26,2.66,3.45,6.06,3.34,9.55,.13,3.44-1.1,6.8-3.43,9.33Z"/>
      <path d="M473.73,23.75c2.06,.04,4.05-.77,5.5-2.24,1.48-1.43,2.29-3.42,2.25-5.48,0-4.28-3.45-7.75-7.73-7.76-4.28,0-7.75,3.45-7.76,7.73v.03c-.04,4.22,3.35,7.68,7.58,7.71,.05,0,.11,0,.16,0Z"/>
      <rect x="467.14" y="27.52" width="13.19" height="47.15"/>
      <path d="M538.12,46.19c-.22-5.47-2.78-10.57-7.03-14.02-4.57-3.7-10.31-5.63-16.19-5.44-6.34-.04-12.46,2.34-17.11,6.66-4.94,4.41-7.66,10.78-7.43,17.4-.62,12.96,9.38,23.97,22.34,24.59,.86,.04,1.73,.04,2.59-.02,7.87-.12,15.31-3.6,20.45-9.55l-7.56-8.15c-1.44,2.13-3.39,3.86-5.67,5.04-2.25,1.23-4.78,1.88-7.35,1.89-3.28,.18-6.46-1.22-8.53-3.77l31.49-12.97v-1.67Zm-34.74,5.44c-.07-.52-.1-1.05-.09-1.58-.17-3.34,1.21-6.58,3.74-8.76,2.38-2.06,5.43-3.19,8.58-3.16,4.8,0,7.59,1.72,8.35,5.17l-20.58,8.33Z"/>
      <path d="M77.9,0c3.91,3.27,7.42,6.99,10.45,11.1,2.23,3.02,4.17,6.24,5.81,9.62,1.9,3.94,3.36,8.08,4.35,12.35,1.27,5.46,1.73,11.08,1.38,16.67-.4,6.52-1.91,12.91-4.48,18.92-3.05,7.12-7.41,13.61-12.85,19.12-4.53,4.62-9.71,8.57-15.37,11.71-.31,.17-.63,.33-.95,.49-.15,.06-.33,.03-.44-.09-.18-.2-.37-.4-.54-.6-1.27-1.54-2.54-3.07-3.81-4.61-4.01-4.85-8.02-9.7-12.03-14.55-4.72-5.71-9.43-11.42-14.14-17.12-.88-1.06-1.76-2.13-2.65-3.19-.13-.14-.27-.28-.41-.4-.11-.05-.24-.05-.34,0-.19,.19-.39,.37-.56,.58-1.32,1.59-2.64,3.19-3.96,4.79-1.73,2.1-3.46,4.21-5.2,6.3-.84,1.01-.65,.97-2.11,.97H1.87c-.53,0-1.06,0-1.58,0-.13,0-.26-.04-.29-.16-.01-.11,.02-.21,.08-.3,1.02-1.25,2.04-2.49,3.07-3.73,5.75-6.95,11.5-13.89,17.24-20.84,.9-1.08,.86-.97,.03-1.97-3.74-4.53-7.48-9.05-11.22-13.57-2.88-3.49-5.77-6.98-8.65-10.47-.17-.21-.33-.42-.49-.63-.07-.1-.04-.24,.06-.31,.03-.02,.06-.03,.09-.03,.41-.01,.81-.03,1.22-.03,3.05,0,6.09,0,9.14,0h0s9.26,0,9.26,0c.33,0,.65,.01,.98,0,.32-.02,.63,.13,.83,.38,.63,.77,1.28,1.53,1.91,2.3,7.26,8.78,14.52,17.56,21.78,26.34,6.26,7.57,12.52,15.14,18.77,22.71,1.86,2.25,3.72,4.49,5.58,6.74,.17,.21,.36,.4,.54,.6,.13,.1,.31,.1,.45,.02,.23-.21,.46-.41,.68-.63,2.12-2.17,4.04-4.52,5.73-7.04,3.4-5.02,5.76-10.66,6.96-16.6,.83-4.11,1.07-8.32,.71-12.49-.29-3.41-.96-6.77-2-10.03-2.56-7.93-7.16-15.05-13.35-20.64L77.9,0Z"/>
      <path d="M34.92,28.86c.09-.32,.27-.61,.51-.83,1.82-2.2,3.63-4.4,5.46-6.59,.41-.49,.83-.98,1.23-1.48,.24-.35,.65-.54,1.07-.5,.25,.02,.51,0,.77,0h19.53c.38,0,.76,.02,1.15,.04,.12,.02,.21,.13,.2,.26,0,.04-.02,.07-.04,.1-.17,.23-.33,.45-.51,.67-5.78,7-11.57,14-17.35,21-.2,.25-.43,.48-.65,.71-.11,.07-.25,.07-.35-.01-.17-.17-.34-.35-.49-.53-3.07-3.72-6.14-7.43-9.21-11.15-.36-.43-.72-.86-1.07-1.3-.09-.12-.16-.25-.23-.38Z"/>
    </g>
  </g>
</svg>